<?xml version="1.0" standalone="no"?>
<!DOCTYPE svg PUBLIC "-//W3C//DTD SVG 20010904//EN"
 "http://www.w3.org/TR/2001/REC-SVG-20010904/DTD/svg10.dtd">
<svg version="1.0" xmlns="http://www.w3.org/2000/svg"
 width="260.000000pt" height="260.000000pt" viewBox="0 0 260.000000 260.000000"
 preserveAspectRatio="xMidYMid meet">
<metadata>
Created by potrace 1.11, written by Peter Selinger 2001-2013
</metadata>
<g transform="translate(0.000000,260.000000) scale(0.100000,-0.100000)"
fill="#000000" stroke="none">
<path d="M1059 2583 c0 -19 0 -506 1 -633 l0 -76 28 2 c15 1 33 2 40 3 9 1 12
40 12 158 0 157 5 189 15 97 3 -27 8 -65 10 -84 2 -19 7 -62 11 -95 3 -33 10
-65 15 -71 10 -12 98 -9 111 4 3 4 8 21 11 37 3 24 4 21 6 -12 1 -36 4 -43 22
-43 11 0 17 -5 14 -10 -4 -6 -12 -10 -18 -9 -34 4 -34 -1 -33 -252 1 -138 -2
-256 -6 -262 -4 -7 -8 37 -8 97 0 87 -3 113 -16 128 -14 14 -15 20 -4 33 16
19 17 177 1 217 -5 15 -19 32 -30 37 -29 16 -367 10 -363 -6 1 -7 -2 -13 -7
-13 -4 0 -9 25 -9 56 0 64 13 68 17 5 1 -17 9 -19 73 -19 40 0 78 3 85 5 9 3
13 25 13 63 l0 58 -37 -1 c-35 -2 -37 0 -38 31 -2 35 8 47 40 47 18 0 20 8 23
67 l3 67 -28 -1 c-47 -1 -52 1 -48 22 6 33 15 40 51 40 l34 0 0 64 0 63 -84 2
-84 2 -4 -28 c-2 -15 -4 -81 -3 -146 0 -67 -3 -108 -7 -96 -5 12 -7 38 -5 58
2 20 -1 49 -6 65 -7 21 -6 30 4 37 11 7 11 9 1 9 -7 0 -11 4 -8 9 4 5 2 20 -3
34 -6 16 -6 28 1 35 6 6 6 12 0 16 -6 4 -8 22 -5 43 5 31 4 35 -10 30 -9 -3
-19 -2 -22 4 -4 5 -22 7 -41 3 -22 -4 -34 -2 -34 5 0 17 -37 13 -44 -5 -3 -9
-6 -139 -6 -290 0 -151 -4 -274 -9 -274 -5 0 -8 23 -7 52 1 28 -4 61 -10 73
-6 11 -7 30 -3 40 12 31 9 226 -4 265 -10 29 -18 36 -47 40 -51 8 -71 1 -69
-24 0 -11 1 -38 0 -59 l-1 -37 -77 1 c-43 1 -86 1 -95 0 -17 -1 -18 -18 -18
-204 0 -135 4 -207 11 -214 8 -8 -1 -10 -35 -8 l-46 2 0 -250 0 -249 63 4 62
4 0 -124 c0 -120 1 -124 25 -144 29 -24 90 -20 121 8 18 16 19 33 19 225 0
114 -4 219 -10 234 -7 17 -20 28 -42 32 -18 4 -36 6 -39 6 -4 -1 2 13 11 32
13 25 17 53 15 96 -3 73 -20 109 -55 115 -25 5 -25 6 -22 92 2 48 8 90 14 93
6 4 24 6 39 4 29 -4 41 6 46 39 5 28 -15 45 -46 41 -41 -5 -53 7 -49 51 l3 39
54 0 54 0 -1 -242 0 -243 29 0 29 0 0 151 c0 82 4 148 9 145 4 -3 8 -69 8
-146 0 -78 3 -144 7 -147 3 -4 20 -7 36 -8 16 -1 32 -4 35 -7 3 -3 -29 -5 -72
-4 l-78 1 0 -50 c0 -31 4 -50 12 -50 6 0 14 -3 17 -6 4 -3 6 -127 5 -275 -1
-327 1 -477 6 -482 7 -8 74 -9 87 -1 8 5 13 34 13 88 1 44 4 83 6 86 3 3 26 6
50 6 48 2 99 23 99 41 0 6 2 9 4 7 2 -2 -4 -47 -15 -99 -28 -143 -28 -140 31
-140 48 0 51 1 57 31 7 35 32 49 77 40 23 -5 32 -14 38 -39 8 -30 11 -32 57
-32 26 0 50 2 53 5 6 7 -19 151 -31 174 -6 10 -8 21 -5 24 3 3 1 22 -5 43 -6
22 -13 53 -16 69 -2 17 -16 77 -29 135 -13 58 -20 107 -15 108 5 2 9 15 9 29
0 15 3 24 6 20 3 -3 6 -36 5 -74 l0 -69 49 0 c39 -1 50 3 51 15 1 9 1 67 1
129 0 90 3 112 14 112 8 0 14 -6 15 -12 0 -7 2 -61 3 -119 2 -59 6 -111 10
-117 4 -6 -5 -12 -21 -14 l-28 -3 -3 -217 -2 -218 75 0 75 0 1 33 c4 143 4
142 23 145 30 6 40 -14 42 -84 3 -88 10 -94 99 -92 40 2 71 6 69 10 -3 4 -7
40 -10 80 -4 63 -9 77 -33 101 l-28 29 29 28 c30 31 37 79 17 123 -17 37 -70
64 -134 66 -12 1 -16 4 -9 9 7 4 11 47 10 120 0 62 2 120 6 130 6 15 7 14 8
-3 2 -29 5 -49 20 -148 16 -104 23 -110 113 -98 4 1 7 18 8 39 1 26 3 31 7 17
6 -18 16 -20 82 -20 l74 0 1 35 c2 52 -4 60 -41 60 l-34 0 0 70 c0 70 4 77 43
71 4 0 7 19 7 44 0 41 -2 45 -25 45 -24 0 -25 2 -25 64 l0 65 37 3 c36 3 37 5
38 41 l1 37 -95 1 c-53 1 -107 2 -121 2 l-25 1 0 -121 c0 -126 -8 -142 -19
-38 -16 146 -22 168 -47 160 -10 -4 -19 -2 -19 3 0 6 32 10 70 11 98 1 122 17
141 96 l7 30 1 -36 c2 -56 46 -99 103 -99 54 0 85 21 108 74 l18 41 -4 -59
c-5 -70 24 -146 57 -146 10 0 19 -5 19 -11 0 -5 -4 -8 -9 -4 -11 6 -21 -36
-24 -97 -2 -41 -17 -41 -17 0 0 67 -11 98 -36 100 -24 2 -28 -8 -37 -90 -4
-38 -17 -47 -18 -12 -1 32 -7 72 -14 91 -2 7 -15 11 -27 9 -13 -3 -26 -5 -30
-5 -4 -1 -5 -13 -4 -28 2 -16 7 -62 11 -103 4 -41 9 -83 11 -93 1 -10 6 -53
10 -95 8 -95 17 -121 41 -117 10 2 23 4 29 4 6 1 11 7 11 14 1 6 2 36 4 65 3
59 18 71 20 15 1 -21 2 -42 4 -48 1 -5 3 -19 3 -31 2 -17 7 -20 33 -16 35 5
36 6 44 92 18 195 32 308 34 277 1 -19 8 -30 23 -36 22 -8 23 -12 23 -175 l0
-166 -35 -1 c-19 0 -52 0 -72 1 -35 1 -40 -2 -90 -71 l-53 -73 -5 70 -5 69
-84 0 c-75 0 -84 -2 -90 -20 -6 -16 -8 -386 -2 -418 0 -4 42 -7 91 -6 89 3 90
3 91 29 2 74 14 97 33 66 6 -10 23 -35 38 -56 l26 -37 96 -1 c53 0 98 4 101 8
3 5 -25 55 -63 112 -38 57 -72 109 -76 115 -6 11 40 93 63 113 24 21 70 90 60
90 -32 0 7 14 42 15 33 1 40 -2 36 -15 -7 -29 11 -49 41 -45 15 2 30 4 34 4 4
1 6 21 4 45 -2 24 0 49 5 57 6 10 9 7 9 -11 0 -14 5 -41 10 -61 9 -33 13 -35
47 -35 21 1 43 4 48 8 6 4 10 55 9 130 -2 145 -1 141 -14 133 -5 -3 -10 -1
-10 4 0 6 6 11 14 11 8 0 22 10 30 22 22 32 22 160 -1 198 -33 57 -128 46
-164 -19 -11 -20 -17 -26 -14 -15 6 23 -6 32 -40 29 -16 -1 -20 4 -19 24 2 14
3 45 3 69 l1 42 41 0 c39 0 40 1 37 33 -3 30 -5 32 -39 29 -32 -3 -37 0 -41
22 -7 35 2 44 47 48 40 3 42 6 36 47 0 5 -36 8 -79 8 l-77 -2 -2 47 c-2 64
-28 106 -71 114 -68 13 -105 -31 -106 -126 -1 -33 -3 -60 -6 -60 -9 1 -128
254 -132 280 -2 19 1 25 17 25 21 0 22 -2 24 -58 1 -31 3 -32 42 -32 l41 0 -4
65 c-5 72 -20 103 -55 119 -84 38 -175 -34 -159 -124 3 -15 2 -24 -2 -20 -4 3
-7 10 -7 13 0 20 -37 54 -66 62 -51 15 -189 13 -191 -2 -1 -7 -4 39 -7 102
l-6 115 -37 3 c-44 4 -40 26 -40 -213 0 -135 -9 -156 -21 -50 -4 28 -9 64 -11
80 -3 17 -8 57 -12 90 -9 87 -16 95 -74 95 -41 0 -50 -3 -51 -17z m609 -470
c54 -107 62 -140 36 -150 -22 -8 -35 9 -37 52 -3 36 -5 38 -39 40 -27 2 -38
-1 -41 -14 -3 -9 -5 45 -5 119 l-1 135 17 -40 c9 -22 41 -86 70 -142z m-1049
70 c-4 -92 -19 -82 -18 12 0 69 3 84 10 65 5 -13 9 -48 8 -77z m846 64 c4 -13
5 -73 3 -133 -2 -89 -6 -109 -18 -109 -12 0 -15 20 -16 120 0 66 2 126 4 133
7 20 21 14 27 -11z m-147 -12 c-3 -3 -9 2 -12 12 -6 14 -5 15 5 6 7 -7 10 -15
7 -18z m-1 -37 c-3 -8 -6 -5 -6 6 -1 11 2 17 5 13 3 -3 4 -12 1 -19z m0 -90
c-3 -7 -5 -2 -5 12 0 14 2 19 5 13 2 -7 2 -19 0 -25z m604 -15 c1 -117 -3
-208 -11 -223 -8 -13 -10 -13 -11 0 -4 44 -5 238 -1 253 8 34 22 16 23 -30z
m-1045 -18 c0 -14 -4 -25 -8 -25 -10 0 -11 34 -1 43 9 10 9 10 9 -18z m441
-52 c-3 -10 -5 -4 -5 12 0 17 2 24 5 18 2 -7 2 -21 0 -30z m688 28 c3 -5 2
-12 -3 -15 -5 -3 -9 1 -9 9 0 17 3 19 12 6z m-1125 -26 c0 -8 -4 -15 -10 -15
-5 0 -7 7 -4 15 4 8 8 15 10 15 2 0 4 -7 4 -15z m-4 -50 c0 -14 -3 -25 -7 -25
-3 0 -6 11 -6 25 0 14 3 25 6 25 4 0 7 -11 7 -25z m1127 0 c4 -8 3 -16 -1 -19
-4 -3 -9 4 -9 15 -2 23 3 25 10 4z m-1313 -125 c0 -43 3 -52 23 -60 22 -10 22
-10 -3 -7 -18 1 -24 -2 -22 -13 2 -8 0 -11 -5 -7 -10 11 -11 137 -1 137 5 0 8
-23 8 -50z m1313 -36 c3 -17 1 -37 -3 -44 -9 -15 -63 -21 -82 -9 -9 6 -7 9 9
9 23 0 63 43 63 68 0 24 8 10 13 -24z m-946 -6 c-3 -7 -5 -2 -5 12 0 14 2 19
5 13 2 -7 2 -19 0 -25z m-181 -5 c-3 -19 -46 -32 -46 -14 0 6 7 8 15 5 9 -4
15 0 15 10 0 9 4 16 9 16 5 0 8 -8 7 -17z m-61 -13 c-3 -5 -12 -10 -18 -10 -7
0 -6 4 3 10 19 12 23 12 15 0z m-42 -7 c-7 -2 -19 -2 -25 0 -7 3 -2 5 12 5 14
0 19 -2 13 -5z m288 -125 c0 -70 1 -148 1 -173 1 -25 -2 -48 -6 -52 -3 -3 -6
1 -6 9 0 12 -10 15 -40 13 l-40 -2 0 69 c0 60 2 69 18 67 40 -4 43 3 33 74 -1
4 -7 7 -13 6 -34 -4 -38 2 -38 61 l0 60 45 -2 45 -1 1 -129z m129 57 c3 -76 1
-85 -14 -85 -12 0 -15 15 -14 68 0 37 3 71 5 75 11 18 22 -10 23 -58z m347 15
c-2 -23 -10 -17 -12 10 -1 10 2 17 6 14 4 -2 7 -13 6 -24z m-1114 -7 c6 -32
-1 -53 -17 -53 -7 0 -12 16 -12 40 0 46 21 55 29 13z m267 17 c0 -5 -2 -10 -4
-10 -3 0 -8 5 -11 10 -3 6 -1 10 4 10 6 0 11 -4 11 -10z m186 -182 l-1 -183
23 -3 c16 -3 21 -8 18 -20 -3 -9 -8 -34 -12 -55 -3 -22 -12 -56 -19 -78 -16
-43 -15 -41 -15 -69 0 -11 -4 -20 -10 -20 -5 0 -10 18 -10 39 0 48 -25 80 -70
91 l-35 8 37 1 37 1 1 206 c0 114 3 210 5 215 3 4 14 5 25 2 12 -3 20 -2 19 3
-2 13 1 44 4 44 2 0 3 -82 3 -182z m1371 120 c4 -57 -4 -88 -22 -88 -12 0 -15
15 -15 68 0 38 3 72 7 76 13 12 27 -14 30 -56z m-710 -8 c-2 -23 -10 -17 -12
10 -1 10 2 17 6 14 4 -2 7 -13 6 -24z m-805 -27 c2 -27 2 -123 0 -214 l-3
-166 -30 -1 -30 -1 2 160 2 159 24 0 c24 0 25 2 21 55 -1 30 0 55 4 55 4 0 8
-21 10 -47z m1403 -23 c-4 -35 24 -75 59 -84 20 -5 23 -11 21 -43 -5 -60 -6
-60 -20 -12 l-15 46 -54 -4 -54 -3 0 58 c1 62 4 66 42 70 22 1 25 -2 21 -28z
m-597 -25 c-3 -3 -9 2 -12 12 -6 14 -5 15 5 6 7 -7 10 -15 7 -18z m-1120 -46
c-12 -16 -23 -29 -24 -29 -3 0 2 55 5 55 0 1 10 1 21 2 19 2 19 1 -2 -28z
m1119 9 c-3 -8 -6 -5 -6 6 -1 11 2 17 5 13 3 -3 4 -12 1 -19z m0 -53 c0 -8 -4
-12 -9 -9 -5 3 -6 10 -3 15 9 13 12 11 12 -6z m-1132 -4 c3 -5 2 -12 -3 -15
-5 -3 -9 1 -9 9 0 17 3 19 12 6z m93 -184 c-4 -235 -22 -239 -25 -5 -2 181 1
208 18 191 6 -6 8 -79 7 -186z m-93 143 c3 -5 1 -10 -4 -10 -6 0 -11 5 -11 10
0 6 2 10 4 10 3 0 8 -4 11 -10z m1133 -75 c-3 -30 -11 -23 -13 9 0 14 3 22 7
20 4 -3 7 -16 6 -29z m539 -37 c-2 -13 -4 -3 -4 22 0 25 2 35 4 23 2 -13 2
-33 0 -45z m-760 -74 c-3 -3 -12 -4 -19 -1 -8 3 -5 6 6 6 11 1 17 -2 13 -5z
m33 -4 c0 -5 -5 -10 -11 -10 -5 0 -7 5 -4 10 3 6 8 10 11 10 2 0 4 -4 4 -10z
m-608 -99 c14 -13 16 -60 3 -71 -16 -13 -55 -22 -56 -12 -11 80 -5 105 24 96
12 -3 25 -9 29 -13z m618 -61 c0 -5 -11 -10 -25 -10 -14 0 -25 5 -25 10 0 6
11 10 25 10 14 0 25 -4 25 -10z m-368 -80 c2 -26 -1 -35 -14 -38 -14 -3 -18 3
-18 26 0 68 25 78 32 12z"/>
<path d="M1737 823 c-2 -5 -17 -45 -31 -90 -15 -46 -29 -83 -30 -83 -1 0 -2
29 -2 65 1 72 -10 88 -53 80 -31 -6 -42 -22 -39 -62 4 -54 -9 -47 -24 14 -13
54 -16 58 -45 61 -29 3 -32 0 -63 -72 -19 -42 -37 -76 -42 -76 -5 0 -4 9 2 19
15 29 12 87 -6 105 -21 22 -61 20 -74 -3 -13 -25 -13 -77 0 -102 8 -13 7 -19
0 -19 -6 0 -13 8 -16 18 -4 9 -19 45 -34 79 -22 47 -33 61 -47 58 -10 -2 -23
-4 -30 -4 -6 -1 -9 -9 -6 -20 4 -15 -20 -81 -30 -81 -1 0 -2 17 -2 37 0 34 -3
38 -27 41 -27 3 -28 1 -28 -40 l-1 -43 -20 42 c-18 35 -53 64 -63 51 -2 -1
-16 -36 -33 -77 -31 -79 -53 -103 -45 -51 10 67 -22 104 -69 80 -18 -10 -20
-18 -15 -53 6 -41 5 -39 -35 33 -22 41 -42 77 -44 79 -2 1 -12 -3 -23 -10 -18
-13 -16 -19 37 -129 l55 -115 2 -275 c1 -263 2 -275 20 -275 10 0 27 3 36 7 9
5 20 4 23 -2 3 -5 16 -8 28 -6 l22 3 0 274 0 274 29 87 c25 73 31 85 41 70 20
-31 32 -67 30 -92 -2 -14 -4 -47 -5 -75 -2 -27 -9 -57 -16 -65 -10 -12 -9 -34
5 -113 12 -66 17 -138 15 -227 -1 -72 2 -131 7 -131 5 -1 15 -2 22 -3 6 -1 16
3 20 9 6 7 10 6 14 -2 2 -7 14 -13 25 -13 19 0 19 6 16 153 -3 115 0 172 13
235 13 68 14 82 3 82 -9 0 -15 12 -15 33 -5 112 -3 144 14 182 l19 40 35 -85
36 -85 1 -265 c1 -146 5 -270 8 -276 7 -10 134 -12 143 -2 2 2 5 125 6 273 2
261 3 272 27 344 l26 75 19 -90 c15 -70 19 -143 22 -344 l4 -255 35 -3 c34 -3
35 -3 39 40 l4 43 1 -47 c2 -38 5 -46 20 -43 9 2 27 4 39 4 21 1 21 3 18 119
-3 64 -5 185 -5 267 l-1 150 46 129 c25 72 43 136 41 143 -6 14 -42 18 -49 6z
m-595 -305 c4 -36 2 -48 -8 -48 -10 0 -13 10 -10 33 2 17 4 41 5 51 2 31 8 14
13 -36z m235 -240 c-2 -13 -4 -3 -4 22 0 25 2 35 4 23 2 -13 2 -33 0 -45z m0
-105 c-2 -16 -4 -3 -4 27 0 30 2 43 4 28 2 -16 2 -40 0 -55z m-450 -135 c-3
-7 -5 -2 -5 12 0 14 2 19 5 13 2 -7 2 -19 0 -25z m218 2 c3 -5 1 -10 -4 -10
-6 0 -11 5 -11 10 0 6 2 10 4 10 3 0 8 -4 11 -10z"/>
</g>
</svg>
